<svg xmlns="http://www.w3.org/2000/svg" width="960" height="480" viewBox="0 0 960 480" role="img" aria-labelledby="title desc">
  <title id="title">Team OS deployment card</title>
  <desc id="desc">Postgres and Team OS API services connected inside a private network.</desc>
  <defs>
    <pattern id="dots" width="18" height="18" patternUnits="userSpaceOnUse">
      <circle cx="2" cy="2" r="1.2" fill="#3A3633"/>
    </pattern>
  </defs>
  <rect width="960" height="480" rx="18" fill="#1B1C1B"/>
  <rect width="960" height="480" fill="url(#dots)"/>
  <rect x="128" y="152" width="250" height="176" rx="24" fill="#252321" stroke="#5A514B" stroke-width="2"/>
  <rect x="582" y="152" width="250" height="176" rx="24" fill="#252321" stroke="#5A514B" stroke-width="2"/>
  <path d="M188 212c0-28 130-28 130 0v72c0 28-130 28-130 0z" fill="none" stroke="#EB652A" stroke-width="8"/>
  <path d="M188 212c0 28 130 28 130 0M188 248c0 28 130 28 130 0" stroke="#EB652A" stroke-width="8" fill="none"/>
  <text x="202" y="356" fill="#F6F3F1" font-family="Inter, sans-serif" font-size="24">Postgres + pgvector</text>
  <rect x="642" y="210" width="130" height="80" rx="14" fill="#93452A"/>
  <path d="M678 250h58M707 221v58" stroke="#FFDBCF" stroke-width="8" stroke-linecap="round"/>
  <text x="628" y="356" fill="#F6F3F1" font-family="Inter, sans-serif" font-size="24">Team OS API</text>
  <path d="M398 240h164" stroke="#EB652A" stroke-width="8" stroke-linecap="round"/>
  <path d="M562 240l-24-20M562 240l-24 20" stroke="#EB652A" stroke-width="8" stroke-linecap="round"/>
  <rect x="354" y="88" width="252" height="48" rx="24" fill="#FCF9F7"/>
  <text x="392" y="120" fill="#390C00" font-family="Space Grotesk, sans-serif" font-size="22">GET /v1/health</text>
</svg>
