<svg xmlns="http://www.w3.org/2000/svg" width="960" height="480" viewBox="0 0 960 480" role="img" aria-labelledby="title desc">
  <title id="title">Agentic OS setup card</title>
  <desc id="desc">A terminal, Command Centre panel, and setup checklist on a dark dotted background.</desc>
  <defs>
    <pattern id="dots" width="18" height="18" patternUnits="userSpaceOnUse">
      <circle cx="2" cy="2" r="1.2" fill="#3A3633"/>
    </pattern>
  </defs>
  <rect width="960" height="480" rx="18" fill="#1B1C1B"/>
  <rect width="960" height="480" fill="url(#dots)"/>
  <rect x="96" y="112" width="380" height="238" rx="16" fill="#252321" stroke="#4B4540"/>
  <rect x="96" y="112" width="380" height="42" rx="16" fill="#2D2A28"/>
  <circle cx="126" cy="133" r="6" fill="#EB652A"/>
  <circle cx="148" cy="133" r="6" fill="#B25D3F"/>
  <circle cx="170" cy="133" r="6" fill="#6B8E6B"/>
  <text x="126" y="194" fill="#F6F3F1" font-family="Space Grotesk, monospace" font-size="24">scripts/centre.ps1</text>
  <text x="126" y="238" fill="#B9B2AD" font-family="Space Grotesk, monospace" font-size="22">setup-memory</text>
  <text x="126" y="282" fill="#B9B2AD" font-family="Space Grotesk, monospace" font-size="22">first successful run</text>
  <rect x="530" y="132" width="300" height="198" rx="22" fill="#FCF9F7"/>
  <rect x="560" y="166" width="154" height="20" rx="10" fill="#93452A"/>
  <rect x="560" y="212" width="220" height="16" rx="8" fill="#D9D2CD"/>
  <rect x="560" y="250" width="180" height="16" rx="8" fill="#D9D2CD"/>
  <rect x="560" y="286" width="116" height="16" rx="8" fill="#EB652A"/>
  <path d="M505 242h-48" stroke="#EB652A" stroke-width="6" stroke-linecap="round"/>
  <path d="M457 242l18-18M457 242l18 18" stroke="#EB652A" stroke-width="6" stroke-linecap="round"/>
</svg>
