<svg xmlns="http://www.w3.org/2000/svg" width="960" height="480" viewBox="0 0 960 480" role="img" aria-labelledby="title desc">
  <title id="title">Memory and file sync card</title>
  <desc id="desc">Shared memory and allowed files syncing from a Team OS server to a local runner.</desc>
  <defs>
    <pattern id="dots" width="18" height="18" patternUnits="userSpaceOnUse">
      <circle cx="2" cy="2" r="1.2" fill="#3A3633"/>
    </pattern>
  </defs>
  <rect width="960" height="480" rx="18" fill="#1B1C1B"/>
  <rect width="960" height="480" fill="url(#dots)"/>
  <rect x="126" y="112" width="270" height="250" rx="24" fill="#252321" stroke="#5A514B"/>
  <path d="M214 180c0-34 94-34 94 0v88c0 34-94 34-94 0z" fill="none" stroke="#EB652A" stroke-width="8"/>
  <path d="M214 180c0 34 94 34 94 0M214 224c0 34 94 34 94 0" stroke="#EB652A" stroke-width="8" fill="none"/>
  <text x="174" y="404" fill="#F6F3F1" font-family="Inter, sans-serif" font-size="26">memory</text>
  <rect x="578" y="132" width="250" height="190" rx="22" fill="#FCF9F7"/>
  <path d="M628 178h86l34 34v70H628z" fill="#FFDBCF" stroke="#93452A" stroke-width="6" stroke-linejoin="round"/>
  <path d="M714 178v38h38" stroke="#93452A" stroke-width="6" fill="none" stroke-linejoin="round"/>
  <text x="634" y="404" fill="#F6F3F1" font-family="Inter, sans-serif" font-size="26">file sync</text>
  <path d="M426 220h122" stroke="#EB652A" stroke-width="8" stroke-linecap="round"/>
  <path d="M548 220l-22-20M548 220l-22 20" stroke="#EB652A" stroke-width="8" stroke-linecap="round"/>
  <path d="M548 268H426" stroke="#B25D3F" stroke-width="8" stroke-linecap="round"/>
  <path d="M426 268l22-20M426 268l22 20" stroke="#B25D3F" stroke-width="8" stroke-linecap="round"/>
</svg>
